<svg width="212" height="183" viewBox="0 0 212 183" fill="none" xmlns="http://www.w3.org/2000/svg">
<ellipse cx="147.29" cy="64.6179" rx="64.2901" ry="64.6179" fill="#1A273B"/>
<path d="M157.604 63.4202C160.57 63.9731 163.008 65.456 164.918 67.8689C166.828 70.2817 167.783 73.0465 167.783 76.1631C167.783 78.9781 167.079 81.4664 165.672 83.6279C164.315 85.7391 162.329 87.398 159.715 88.6044C157.101 89.8108 154.01 90.4141 150.441 90.4141H127.745V37.7835H149.46C153.03 37.7835 156.096 38.3616 158.66 39.5178C161.273 40.6739 163.234 42.2825 164.541 44.3435C165.898 46.4045 166.577 48.7419 166.577 51.3559C166.577 54.4222 165.747 56.9859 164.088 59.0469C162.48 61.1078 160.318 62.5656 157.604 63.4202ZM138.301 59.4993H147.952C150.466 59.4993 152.401 58.9463 153.758 57.8404C155.116 56.6843 155.794 55.0506 155.794 52.9393C155.794 50.828 155.116 49.1943 153.758 48.0382C152.401 46.882 150.466 46.3039 147.952 46.3039H138.301V59.4993ZM148.933 81.8182C151.496 81.8182 153.482 81.215 154.889 80.0086C156.347 78.8022 157.076 77.0931 157.076 74.8813C157.076 72.6192 156.322 70.8598 154.814 69.6031C153.306 68.2962 151.27 67.6427 148.706 67.6427H138.301V81.8182H148.933Z" fill="white"/>
</svg>
